<?xml version="1.0" encoding="utf-8"?>
<svg viewBox="6.405 0 470.536 608.509" xmlns="http://www.w3.org/2000/svg">
  <g id="SVGRepo_bgCarrier" stroke-width="0" transform="matrix(1, 0, 0, 1, 180.84510803222656, 78.9999771118164)"/>
  <g id="SVGRepo_tracerCarrier" stroke-linecap="round" stroke-linejoin="round" transform="matrix(1, 0, 0, 1, 180.84510803222656, 78.9999771118164)"/>
  <g transform="matrix(1, 0, 0, 1, 179.37429809570312, 77.52906799316406)">
    <path d="M 291.777 336.027 C 292.076 335.322 292.015 334.515 291.613 333.857 C 291.213 333.194 290.517 332.774 289.752 332.718 L 260.312 330.459 C 260.406 329.954 260.503 329.455 260.587 328.951 C 287.264 283.209 287.782 222.217 287.782 221.606 C 287.787 220.971 287.53 220.365 287.082 219.914 C 286.634 219.466 286.022 219.212 285.393 219.212 L 264.456 219.212 C 271.998 162.077 250.529 126.288 249.596 124.769 C 249.023 123.831 247.879 123.42 246.833 123.74 L 230.242 129.035 C 227.203 118.66 214.677 78.243 198.996 58.993 C 198.991 58.989 198.991 58.979 198.986 58.97 C 198.93 58.884 198.85 58.84 198.79 58.762 C 196.728 56.258 194.613 54.086 192.457 52.431 C 191.645 51.806 190.52 51.776 189.661 52.349 L 175.977 61.66 C 143.186 33.435 103.572 16.89 60.932 16.89 L 60.932 16.857 C 55.857 16.379 50.753 16.895 45.582 16.895 C -67.109 16.895 -158.783 132.305 -158.783 274.17 C -158.783 416.03 -67.105 531.442 45.582 531.442 C 50.753 531.442 55.856 531.839 60.932 531.358 L 60.932 531.442 C 101.641 531.442 139.566 516.321 171.46 490.4 C 171.618 490.433 171.772 490.479 171.945 490.479 C 172.132 490.479 172.323 490.46 172.514 490.41 C 223.744 477.827 249.744 433.747 250.827 431.875 C 251.223 431.189 251.257 430.354 250.911 429.645 C 250.575 428.931 249.903 428.431 249.119 428.315 L 228.36 425.131 C 266.141 396.284 290.723 338.538 291.777 336.027 Z M 286.017 337.222 C 285.187 339.056 283.936 341.706 282.377 344.867 C 282.073 344.573 281.724 344.335 281.289 344.232 L 258.733 338.907 C 258.985 337.679 259.195 336.424 259.433 335.187 L 286.017 337.222 Z M 262.804 314.246 C 264.438 301.183 265.301 287.803 265.301 274.17 C 265.301 259.716 264.302 245.561 262.468 231.753 L 282.154 236.399 C 280.576 254.382 275.974 285.823 262.804 314.246 Z M 261.717 223.987 L 282.947 223.987 C 282.886 225.688 282.76 228.332 282.536 231.575 L 261.744 226.672 C 261.609 225.755 261.497 224.822 261.352 223.909 C 261.478 223.928 261.591 223.987 261.717 223.987 Z M 251.285 139.756 C 256.932 154.385 264.055 181.167 259.971 216.058 C 254.936 188.714 246.469 163.012 235.101 139.756 L 251.285 139.756 L 251.285 139.756 Z M 246.423 128.888 C 247.104 130.169 248.131 132.262 249.325 134.976 L 232.669 134.976 C 232.421 134.489 232.179 133.996 231.927 133.513 L 246.423 128.888 Z M 196.41 63.381 C 206.001 75.903 214.527 97.196 220.007 112.896 C 209.823 97.021 198.189 82.707 185.34 70.253 L 196.41 63.381 Z M 190.875 57.312 C 191.687 58.023 192.49 58.835 193.293 59.692 L 181.765 66.847 C 181.065 66.201 180.356 65.584 179.651 64.954 L 190.875 57.312 Z M 45.582 526.664 C -64.466 526.664 -154.003 413.393 -154.003 274.17 C -154.004 134.944 -64.47 21.674 45.582 21.674 C 155.634 21.674 245.177 134.944 245.177 274.17 C 245.177 413.393 155.634 526.664 45.582 526.664 Z M 179.697 483.343 C 194.319 470.154 207.517 454.645 218.92 437.167 L 237.088 442.669 C 226.508 455.439 207.256 474.149 179.697 483.343 Z M 244.766 432.491 C 243.716 434.05 242.195 436.182 240.299 438.652 L 221.537 432.971 C 222.308 431.743 223.092 430.531 223.843 429.289 L 244.766 432.491 Z M 103.983 520.685 C 188.298 488.967 249.951 390.487 249.951 274.169 C 249.951 157.849 188.299 59.367 103.983 27.651 C 193.404 52.631 260.521 153.644 260.521 274.169 C 260.521 394.692 193.404 495.702 103.983 520.685 Z M 230.904 416.819 C 242.716 394.599 251.808 369.924 257.688 343.564 L 280.203 348.88 C 280.254 348.889 280.301 348.889 280.352 348.894 C 271.195 366.811 253.614 397.04 230.904 416.819 Z M 45.458 314.862 L 45.769 314.867 L 46.075 314.797 C 60.571 311.334 71.088 294.285 71.088 274.24 C 71.088 254.195 60.571 237.143 46.075 233.683 L 45.769 233.613 L 45.458 233.617 C 29.027 234.046 16.163 251.886 16.163 274.24 C 16.163 296.591 29.032 314.432 45.458 314.862 Z M 45.271 238.41 C 57.286 241.497 66.308 256.824 66.308 274.243 C 66.308 291.666 57.287 306.992 45.271 310.077 C 31.828 309.484 20.941 293.505 20.941 274.243 C 20.942 254.983 31.828 239.003 45.271 238.41 Z M 231.012 275.434 C 231.012 265.183 230.434 255.102 229.407 245.196 L 228.969 240.846 C 222.113 182.991 198.324 132.012 164.161 96.164 C 164.031 95.977 163.882 95.816 163.704 95.667 C 131.604 62.2 90.431 42.052 45.583 42.052 C -31.858 42.052 -98.324 102.134 -126.04 187.182 C -126.651 187.784 -126.838 188.626 -126.737 189.411 C -133.7 211.428 -138.073 235.069 -139.383 259.767 C -139.616 260.341 -139.654 260.978 -139.488 261.55 C -139.703 266.149 -139.845 270.772 -139.845 275.434 C -139.845 404.12 -56.666 508.812 45.583 508.812 C 96.918 508.812 143.444 482.41 177.052 439.841 C 177.141 439.841 177.23 439.841 177.314 439.841 L 179.62 436.817 C 179.592 436.733 179.545 436.672 179.517 436.588 C 211.377 394.664 231.012 337.898 231.012 275.434 Z M 209.59 371.124 C 203.672 366.588 197.413 363.092 190.889 360.277 C 204.233 346.182 206.206 322.666 223.732 313.191 C 221.043 333.53 216.236 352.96 209.59 371.124 Z M 188.766 302.228 C 184.705 302.9 180.571 303.628 176.328 304.16 C 154.401 306.914 133.404 298.504 112.263 293.808 C 113.309 287.48 113.906 280.922 113.906 274.174 C 113.906 267.668 113.37 261.335 112.394 255.223 C 131.781 256.628 151.28 265.78 170.774 262.137 C 185.252 259.432 198.082 251.939 211.957 248.001 C 206.716 252.269 202.796 257.636 200.178 264.837 C 195.57 277.525 195.728 290.345 188.766 302.228 Z M 192.047 306.111 C 202.253 304.673 212.25 304.225 221.621 308.996 C 202.523 319.511 201.637 343.648 186.133 358.331 C 177.924 355.232 169.322 352.997 160.427 350.934 C 138.147 345.782 119.118 338.352 104.244 320.626 C 107.315 313.774 109.733 306.355 111.371 298.48 C 127.599 302.037 143.373 307.432 159.983 309.112 C 169.443 310.069 179.095 308.118 188.611 306.625 L 192.047 306.111 Z M 111.469 250.386 C 109.561 240.987 106.602 232.168 102.686 224.255 C 140.06 219.838 167.796 187.241 205.913 187.131 C 197.148 194.542 192.29 203.251 189.765 214.515 C 186.75 227.949 184.496 244.484 175.905 256.159 C 154.565 262.283 132.895 251.639 111.469 250.386 Z M 147.219 352.623 C 166.625 358.028 186.022 360.847 202.814 372.137 C 163.835 376.982 110.508 382.899 89.824 343.397 C 94.468 338.17 98.561 332.108 102.01 325.391 C 114.172 339.355 129.176 347.597 147.219 352.623 Z M 226.232 275.434 C 226.232 285.515 225.663 295.423 224.66 305.154 C 214.836 299.713 205.015 299.89 194.767 301.304 C 198.752 293.388 200.628 284.997 202.328 276.111 C 205.091 261.604 211.368 252.223 224.669 245.803 C 225.668 255.51 226.232 265.388 226.232 275.434 Z M 212.268 187.345 C 217.869 204.263 221.924 222.199 224.169 240.881 C 223.973 240.914 223.776 240.937 223.571 241.019 C 209.271 242.291 196.842 248.704 183.518 253.627 C 196.548 233.262 189.501 206.571 210.055 189.83 C 211.002 189.06 211.026 188.08 210.582 187.282 C 211.153 187.327 211.699 187.295 212.268 187.345 Z M 210.574 182.508 C 198.491 181.691 187.514 184.162 177.06 188.211 C 177.181 187.952 177.279 187.674 177.302 187.345 C 179.617 158.652 165.654 132.143 164.655 103.735 C 184.117 125.376 199.873 152.2 210.574 182.508 Z M 172.528 187.345 C 172.439 188.472 173.028 189.17 173.821 189.471 C 149.431 199.713 127.496 217.392 100.198 219.672 C 95.974 212.203 90.943 205.622 85.221 200.229 C 106.736 199.431 123.193 189.945 132.424 168.472 C 141.767 146.742 143.41 120.817 159.857 102.97 C 160.628 131.67 174.857 158.466 172.528 187.345 Z M 123.865 69.437 C 136.336 77.054 147.994 86.474 158.681 97.36 C 151.288 104.473 146.369 113.121 142.621 122.403 C 142.532 122.245 142.485 122.086 142.354 121.934 C 130.264 107.856 122.688 88.147 123.865 69.437 Z M 138.976 125.318 C 139.667 126.121 140.507 126.216 141.245 125.943 C 138.016 134.661 135.617 143.804 132.956 152.615 C 129.545 163.933 125.368 175.248 117.098 183.966 C 107.423 194.175 92.997 195.987 79.593 195.466 C 73.445 190.815 66.705 187.45 59.56 185.609 C 79.104 178.342 89.945 163.459 94.388 141.93 C 99.7 116.198 97.866 87.405 119.128 68.47 C 117.499 88.726 125.904 110.092 138.976 125.318 Z M -116.434 188.244 C -96.802 180.583 -76.628 174.467 -55.382 173.725 C -31.509 172.89 -9.502 181.911 9.993 194.983 C 6.738 197.382 3.678 200.192 0.778 203.26 C -31.687 176.149 -78.628 198.663 -116.434 188.244 Z M -2.377 206.84 C -3.672 208.397 -4.937 209.988 -6.144 211.675 C -25.54 201.655 -46.804 198.458 -67.964 194.428 C -44.099 192.774 -20.474 191.656 -2.377 206.84 Z M 40.803 230.631 C 58.82 230.631 73.477 250.191 73.477 274.24 C 73.477 298.289 58.82 317.849 40.803 317.849 C 22.785 317.849 8.129 298.288 8.129 274.24 C 8.128 250.19 22.785 230.631 40.803 230.631 Z M 14.49 135.396 C 19.579 151.549 19.351 168.731 20.263 186.032 C 10.637 168.192 -5.922 156.998 -23.432 147.388 C -41.106 137.69 -64.045 128.858 -73.421 109.799 C -44.527 118.651 -7.141 110.793 14.332 135.272 C 14.375 135.331 14.431 135.345 14.49 135.396 Z M -19.93 75.392 C -9.487 81.464 2.383 83.979 14.609 86.556 C 37.644 91.419 51.001 102.394 55.929 126.249 C 56.02 126.676 56.198 126.996 56.417 127.257 C 54.734 146.313 44.164 164.664 43.384 184.053 C 42.919 184.025 42.471 183.957 42.002 183.957 C 36.152 183.957 30.509 185.075 25.093 186.986 C 23.833 164.549 24.386 143.396 14.454 122.585 C 6.04 104.953 -8.517 91.185 -19.93 75.392 Z M 115.949 64.891 C 105.523 74.062 100.128 85.727 96.861 98.326 C 90.103 74.995 69.869 54.908 46.799 46.874 C 71.302 47.079 94.668 53.459 115.949 64.891 Z M 94.154 108.132 C 94.21 108.554 94.359 108.874 94.555 109.131 C 93.771 113.548 93.136 118.022 92.548 122.49 C 88.731 151.37 82.108 175.753 50.423 183.451 C 49.926 183.57 49.581 183.825 49.308 184.121 C 48.923 184.1 48.545 184.049 48.158 184.039 C 49.103 160.998 64.224 140.124 61.067 116.768 C 57.734 92.147 39.589 73.245 35.937 48.894 C 64.178 54.397 90.159 79.433 94.154 108.132 Z M 30.972 47.648 C 33.73 69.387 47.661 86.219 54.083 106.64 C 48.837 96.967 40.861 89.666 28.932 85.374 C 10.121 78.611 -10.012 79.4 -25.616 65.364 C -8.006 55.776 11.034 49.674 30.972 47.648 Z M -30.42 68.12 C -19.935 86.277 -4.581 100.815 6.664 118.459 C 8.083 120.685 9.304 122.946 10.421 125.226 C -12.83 107.542 -47.187 113.733 -74.184 104.495 C -61.141 89.843 -46.416 77.55 -30.42 68.12 Z M -78.588 109.634 C -71.424 126.049 -55.763 135.429 -40.427 143.741 C -18.296 155.726 5.548 166.783 17.262 190.433 C 16.224 190.993 15.206 191.6 14.194 192.225 C 14.035 192.024 13.879 191.824 13.634 191.656 C -6.252 178.079 -27.758 169.588 -51.983 168.936 C -75.428 168.306 -98.556 175.972 -120.162 184.611 C -110.383 156.149 -96.153 130.699 -78.588 109.634 Z M -122.365 191.394 C -110.77 195.555 -97.959 196.015 -84.83 195.461 C -84.561 195.709 -84.237 195.919 -83.787 196.023 C -58.506 201.892 -32.232 203.689 -8.834 215.669 C -8.99 215.919 -9.168 216.148 -9.324 216.397 C -24.727 212.425 -41.512 211.326 -56.744 216.53 C -70.899 221.372 -81.274 233.568 -93.933 241.2 C -106.746 248.597 -119.511 255.948 -134.485 257.899 C -133.079 234.581 -128.909 212.245 -122.365 191.394 Z M -11.768 220.704 C -13.679 224.188 -15.457 227.819 -16.986 231.662 C -33.689 222.811 -50.234 221.922 -67.694 228.155 C -66.455 227.266 -65.256 226.344 -63.979 225.502 C -48.838 215.56 -28.749 216.517 -11.768 220.704 Z M -134.771 262.668 C -116.406 260.437 -100.802 250.778 -84.936 241.727 C -62.809 229.105 -41.719 223.664 -18.593 236.164 C -19.142 237.751 -19.671 239.347 -20.155 240.983 C -20.587 240.782 -21.079 240.672 -21.655 240.801 C -57.316 248.639 -97.729 276.378 -134.792 263.047 C -134.792 262.917 -134.776 262.794 -134.771 262.668 Z M -135.067 275.434 C -135.067 272.947 -134.983 270.482 -134.92 268.011 C -97.313 280.769 -57.524 253.947 -21.431 245.67 C -22.567 250.249 -23.405 255 -23.984 259.872 C -24.07 259.863 -24.127 259.83 -24.213 259.83 C -41.227 260.176 -57.102 264.833 -72.263 272.233 C -82.61 274.917 -91.776 280.316 -98.016 290.402 C -111.455 312.113 -101.797 345.651 -120.917 364.114 C -130.026 336.835 -135.067 306.867 -135.067 275.434 Z M -24.523 264.623 C -24.724 267.152 -24.796 269.727 -24.834 272.317 C -34.096 271.029 -44.377 269.808 -54.47 269.997 C -44.883 266.779 -34.961 264.873 -24.523 264.623 Z M -119.173 369.023 C -102.579 354.933 -103.464 328.625 -99.464 309.004 C -91.899 271.9 -55.304 272.886 -24.8 277.118 C -24.772 278.257 -24.727 279.391 -24.672 280.52 C -51.204 277.351 -68.696 290.834 -80.458 313.959 C -89.418 331.582 -95.621 366.395 -118.417 371.127 C -118.676 370.433 -118.919 369.728 -119.173 369.023 Z M -116.734 375.674 C -97.681 371.526 -90.297 348.736 -83.677 332.821 C -72.528 306.027 -58.129 280.727 -24.846 285.235 C -24.671 285.258 -24.522 285.216 -24.354 285.208 C -24.135 287.63 -23.892 290.052 -23.533 292.414 C -56.015 305.313 -65.924 339.742 -66.794 372.146 C -67.702 405.907 -60.108 442.31 -45.293 472.889 C -76.022 450.151 -101.007 416.297 -116.734 375.674 Z M -61.99 380.127 C -62.966 348.199 -55.104 310.452 -22.616 297.179 C -21.083 305.02 -18.803 312.431 -15.848 319.283 C -16.154 319.399 -16.459 319.586 -16.742 319.876 C -34.823 338.586 -44.35 360.414 -46.329 386.288 C -48.322 412.293 -43.744 438.354 -43.984 464.425 C -55.486 438.115 -61.127 408.502 -61.99 380.127 Z M -40.218 476.562 C -39.486 475.88 -39.093 474.821 -39.672 473.687 C -39.763 473.505 -39.84 473.314 -39.931 473.131 C -39.616 472.763 -39.371 472.315 -39.343 471.708 C -38.186 447.485 -41.478 423.469 -41.875 399.274 C -42.349 370.245 -34.018 344.917 -13.829 323.761 C -10.254 331.041 -5.928 337.594 -0.987 343.195 C -53.107 379.547 2.798 458.065 18.713 501.498 C -2.328 497.504 -22.196 488.921 -40.218 476.562 Z M -7.135 429.663 C -17.167 402.897 -26.128 366.298 1.686 347.121 C 1.926 346.953 2.082 346.748 2.242 346.547 C 4.823 349.128 7.497 351.531 10.342 353.609 C 10.27 353.735 10.174 353.833 10.122 353.987 C 3.637 373.145 -4.745 390.61 -0.666 411.14 C 2.207 425.575 8.845 439.301 13.251 453.302 C 17.146 465.684 19.479 478.271 19.853 491.077 C 11.54 470.36 0.705 450.59 -7.135 429.663 Z M 45.582 504.037 C 38.422 504.037 31.373 503.449 24.431 502.418 C 26.256 472.885 15.741 447.08 6.593 419.522 C -1.138 396.229 6.92 378.158 14.394 356.241 C 16.683 357.646 19.028 358.921 21.453 359.979 C 21.399 360.105 21.313 360.204 21.28 360.358 C 15.549 385.144 18.753 410.85 34.905 431.251 C 45.074 444.09 58.523 453.634 68.454 466.726 C 75.751 476.344 81.155 487.396 87.199 497.846 C 73.832 501.853 59.905 504.037 45.582 504.037 Z M 90.169 493.537 C 79.519 475.489 69.788 458.763 53.992 444.206 C 29.506 421.636 18.212 394.86 25.887 361.622 C 25.887 361.622 25.887 361.622 25.887 361.617 C 30.213 363.063 34.696 363.941 39.307 364.188 C 37.324 387.748 50.214 407.722 63.742 426.195 C 77.604 445.13 99.489 468.792 90.169 493.537 Z M 94.556 495.426 C 101.94 475.885 91.998 457.39 80.396 440.83 C 64.479 418.106 40.999 394.113 44.054 364.229 C 44.684 364.178 45.319 364.15 45.947 364.098 C 46.267 364.262 46.614 364.373 46.997 364.373 C 50.38 364.373 53.683 363.926 56.937 363.263 C 63.061 387.574 70.243 413.481 91.401 428.966 C 112.786 444.619 145.12 439.999 170.947 439.798 C 149.776 465.66 123.65 485.043 94.556 495.426 Z M 96.45 426.522 C 74.289 414.335 67.283 385.111 61.578 362.153 C 64.63 361.234 67.585 359.998 70.467 358.532 C 78.538 377.966 94.285 388.201 114.023 395.211 C 138.212 403.803 162.827 409.833 173.719 435.012 C 148.265 434.763 119.366 439.123 96.45 426.522 Z M 134.076 396.863 C 109.733 388.242 84.936 382.175 74.59 356.255 C 78.758 353.697 82.683 350.574 86.342 346.972 C 109.089 388.691 167.064 381.322 207.649 376.314 C 199.715 396.639 189.452 415.247 177.323 431.619 C 168.758 413.435 153.254 403.658 134.076 396.863 Z" style="fill-rule: evenodd; paint-order: stroke; fill: undefined;"/>
    <g transform="matrix(7.903548, 0, 0, 11.423257, -187.527451, -11808.664062)" style="">
      <g/>
    </g>
  </g>
  <g transform="matrix(10.608031272888184, 0, 0, 10.491568565368652, -17.405378341674805, -10789.640625)" style="">
    <g>
      <path d="m7 1028.4-5 12h8l-4 10 14-14h-9l6-8z" fill="#f1c40f"/>
      <path fill="#f39c12" d="m7 1028.4-5 12h3l5-12zm3 12-4 10 3-3 4-7z"/>
      <path fill="#e67e22" d="m10 1040.4-0.4062 1h2.9062l0.5-1h-3z"/>
    </g>
  </g>
</svg>